<?xml version="1.0" standalone="no"?>
<!DOCTYPE svg PUBLIC "-//W3C//DTD SVG 20010904//EN"
 "http://www.w3.org/TR/2001/REC-SVG-20010904/DTD/svg10.dtd">
<svg version="1.0" xmlns="http://www.w3.org/2000/svg"
 width="957.000000pt" height="957.000000pt" viewBox="0 0 957.000000 957.000000"
 preserveAspectRatio="xMidYMid meet">
<metadata>
Created by potrace 1.14, written by Peter Selinger 2001-2017
</metadata>
<g transform="translate(0.000000,957.000000) scale(0.100000,-0.100000)"
fill="#000000" stroke="none">
<path d="M4949 7166 c-2 -2 -47 -6 -99 -10 -52 -3 -122 -10 -155 -15 -33 -6
-77 -12 -99 -16 -154 -22 -427 -102 -591 -172 -193 -83 -421 -223 -559 -343
-57 -49 -232 -226 -261 -264 -31 -39 -57 -72 -75 -93 -5 -7 -10 -16 -10 -22 0
-5 -3 -11 -8 -13 -13 -5 -72 -91 -72 -105 0 -7 -4 -13 -8 -13 -4 0 -21 -26
-37 -57 -17 -32 -32 -60 -36 -63 -10 -9 -54 -105 -51 -112 1 -5 -2 -8 -8 -8
-5 0 -10 -7 -10 -15 0 -8 -4 -23 -10 -33 -24 -45 -90 -212 -83 -212 3 0 1 -6
-4 -12 -6 -7 -14 -26 -18 -43 -12 -53 -14 -59 -36 -140 -22 -83 -26 -99 -35
-150 -2 -16 -7 -43 -11 -60 -7 -40 -11 -69 -19 -134 -3 -30 -7 -63 -9 -73 -9
-47 -17 -228 -17 -378 1 -277 21 -472 72 -700 60 -270 174 -549 308 -755 47
-72 166 -228 209 -274 23 -24 39 -49 36 -54 -3 -6 -2 -7 4 -4 11 7 100 -82 95
-96 -1 -4 2 -6 8 -2 5 3 10 1 10 -5 0 -6 5 -8 12 -4 8 5 9 2 5 -9 -3 -9 -1
-19 5 -23 7 -4 8 -3 4 4 -4 7 -3 12 1 12 5 0 14 -12 21 -27 10 -26 11 -26 6
-3 l-6 25 16 -22 c9 -12 13 -29 10 -40 -6 -16 -5 -15 9 2 13 16 18 18 29 7 11
-11 10 -12 -7 -6 -18 7 -18 6 -6 -9 7 -9 17 -15 21 -12 4 2 16 -5 26 -18 19
-21 19 -21 -1 -7 -18 14 -19 13 -8 -1 7 -9 10 -19 6 -23 -4 -4 0 -4 10 0 9 3
17 11 18 18 0 6 4 1 10 -12 5 -14 13 -20 20 -16 8 4 9 3 5 -4 -4 -7 -2 -12 4
-12 6 0 8 -5 4 -11 -5 -9 2 -10 22 -6 16 3 23 4 17 1 -10 -4 -9 -11 2 -28 8
-12 12 -26 8 -31 -5 -4 -3 -5 4 -1 6 3 13 -1 16 -11 4 -16 5 -16 6 -1 0 9 -3
20 -9 23 -5 3 -10 11 -10 16 0 6 7 4 15 -5 8 -8 15 -19 15 -24 0 -13 31 -27
68 -31 14 -1 17 -31 2 -31 -5 0 -10 -5 -10 -11 0 -8 5 -8 15 1 8 7 16 10 16 6
1 -3 2 -10 3 -15 0 -5 4 -12 8 -16 3 -4 5 0 4 9 -1 8 -5 19 -9 22 -4 4 -7 12
-7 18 0 6 5 3 11 -7 6 -9 14 -15 19 -12 4 3 6 -5 3 -17 -4 -22 -4 -22 11 2
l16 25 -6 -30 c-5 -25 -4 -28 7 -18 16 16 29 17 29 2 0 -5 -4 -8 -8 -5 -5 3
-9 -1 -9 -8 0 -8 8 -11 19 -8 10 2 18 -1 18 -7 0 -7 5 -9 10 -6 6 3 10 0 10
-7 0 -9 3 -9 10 2 8 13 10 13 10 -2 0 -9 5 -20 12 -24 6 -4 9 -3 6 2 -4 5 4 9
17 9 15 0 21 -5 17 -14 -4 -10 -1 -12 9 -6 11 7 11 5 -1 -10 -8 -10 -10 -16
-3 -12 6 4 15 2 18 -4 4 -5 13 -8 20 -5 7 2 16 -2 19 -10 3 -9 10 -13 15 -10
5 4 12 0 15 -6 3 -7 3 0 1 16 -2 16 -1 25 3 21 4 -3 7 -12 7 -18 1 -7 7 -11
15 -9 11 3 11 0 0 -13 -11 -13 -10 -15 6 -9 10 4 26 12 34 18 13 10 13 9 1 -7
-13 -16 -12 -18 13 -13 15 3 24 1 21 -5 -4 -5 -10 -7 -14 -5 -4 3 -8 -1 -8 -8
0 -8 7 -12 15 -8 11 4 13 2 7 -9 -7 -10 -2 -9 17 3 29 19 53 16 62 -9 5 -12 4
-13 -7 -5 -8 7 -18 8 -22 4 -5 -4 -5 -1 -1 6 4 6 2 12 -3 12 -6 0 -11 -7 -11
-16 0 -10 6 -14 14 -11 8 3 20 -1 26 -8 16 -19 30 -10 25 17 -3 11 -1 17 3 14
4 -4 8 -12 8 -17 1 -5 2 -13 3 -19 0 -5 7 -9 14 -7 6 1 11 -3 10 -9 -1 -6 4
-11 12 -11 8 0 12 4 9 9 -3 4 0 8 5 8 6 0 11 -5 11 -11 0 -5 4 -7 10 -4 6 3
10 1 10 -5 0 -6 5 -8 12 -4 7 5 5 11 -7 21 -11 7 -14 13 -8 13 7 0 15 -5 18
-10 4 -6 10 -8 15 -5 5 3 11 1 15 -5 4 -6 12 -7 18 -4 7 4 8 3 4 -1 -11 -13
-38 -15 -31 -3 4 7 2 8 -4 4 -24 -14 -11 -26 23 -21 24 3 33 1 29 -6 -4 -7 1
-7 15 0 17 10 21 9 21 -4 0 -9 5 -13 10 -10 6 4 7 12 3 18 -5 9 -3 9 8 1 8 -6
21 -10 30 -9 12 2 15 -3 12 -16 -4 -16 -1 -19 18 -15 16 2 23 10 22 21 -1 14
5 11 22 -11 13 -16 21 -33 17 -39 -3 -5 4 -2 16 9 12 10 19 23 15 29 -3 6 -1
7 6 3 6 -4 9 -11 6 -16 -3 -4 2 -11 11 -14 8 -3 12 -2 9 4 -3 6 -1 10 4 10 6
0 11 -4 11 -10 0 -5 14 -10 31 -10 20 0 28 -4 23 -12 -4 -7 -3 -8 5 -4 8 6 9
12 2 20 -8 9 -7 13 4 13 8 0 12 -4 9 -9 -3 -4 6 -8 20 -8 14 0 30 -8 36 -17 9
-14 10 -14 7 -2 -3 9 -1 22 4 30 8 11 9 9 7 -6 -3 -21 2 -22 37 -9 16 6 15 3
-5 -14 -14 -12 -20 -21 -13 -22 6 0 13 4 15 9 2 5 26 11 53 13 28 2 54 8 58
13 5 6 7 3 3 -7 -6 -20 10 -25 17 -5 4 9 6 8 6 -2 1 -10 4 -11 15 -2 11 10 19
7 36 -11 15 -17 19 -18 15 -6 -4 11 -2 18 4 18 6 0 11 -3 11 -8 0 -4 10 -13
23 -21 21 -13 22 -13 4 6 -14 16 -15 20 -2 20 8 0 15 -4 15 -9 0 -4 10 -8 23
-8 12 0 38 -1 57 -4 23 -2 42 2 54 13 11 9 16 10 12 4 -7 -13 4 -17 32 -14 8
1 19 -1 26 -6 6 -4 3 1 -9 11 -20 19 -20 19 0 12 33 -13 49 -14 62 -4 9 7 18
5 28 -6 20 -19 32 -21 17 -3 -8 10 -6 13 9 13 12 0 18 -5 15 -13 -3 -7 -1 -13
4 -13 9 0 14 15 11 33 -1 5 3 6 8 3 5 -4 12 0 14 6 4 10 6 10 6 1 1 -7 11 -18
24 -24 20 -11 21 -11 8 4 -19 24 -6 21 17 -3 l19 -21 -2 26 c-4 30 -2 31 16 8
12 -14 12 -16 0 -8 -10 6 -12 4 -7 -4 6 -9 13 -8 28 6 19 17 20 17 34 -2 8
-10 14 -14 14 -8 0 19 39 22 51 5 10 -15 10 -15 5 1 -3 9 -1 17 5 17 6 0 7 6
4 13 -4 6 -1 5 7 -3 7 -8 31 -16 53 -16 22 -1 34 1 27 3 -6 3 -9 10 -6 15 4 6
2 8 -4 4 -6 -3 -14 -1 -18 6 -4 7 -4 10 1 6 4 -4 15 -2 23 5 10 7 13 8 9 1 -4
-7 0 -17 8 -24 12 -10 16 -9 21 4 3 9 11 13 17 9 7 -4 8 0 4 13 -6 14 -2 13
14 -6 16 -19 19 -20 15 -6 -5 14 -3 16 6 9 7 -5 22 -13 33 -17 16 -5 16 -3 -5
15 -15 12 -17 17 -6 11 22 -11 59 -4 50 9 -11 18 6 8 32 -19 15 -15 22 -19 14
-9 -9 12 -10 21 -3 28 8 8 13 7 18 -2 6 -8 4 -10 -6 -4 -8 5 -10 4 -6 0 16
-19 35 -13 30 9 -5 19 -4 20 8 4 10 -13 18 -15 29 -8 13 9 13 11 0 20 -11 7
-7 8 15 5 17 -2 34 -4 38 -4 5 -1 5 -6 1 -13 -4 -7 -3 -8 4 -4 7 4 12 15 13
24 0 10 3 12 6 5 3 -10 10 -10 26 -1 21 11 21 10 7 -7 -13 -17 -13 -18 0 -10
8 6 24 10 35 10 13 0 19 7 19 18 -1 9 2 17 7 17 5 0 9 -4 9 -8 0 -5 7 -9 15
-9 8 0 15 4 15 9 0 4 -4 8 -10 8 -5 0 -10 5 -10 11 0 8 6 7 17 -2 19 -16 22
-16 35 3 8 10 9 9 4 -4 -3 -10 0 -20 6 -24 6 -4 8 -3 4 4 -3 6 -2 13 4 17 6 4
7 11 4 17 -4 7 -2 8 5 4 6 -4 8 -13 5 -19 -4 -7 -4 -9 1 -5 4 4 14 0 22 -10 8
-9 11 -11 7 -3 -11 22 -13 62 -3 55 5 -3 6 -10 3 -16 -4 -6 -1 -8 7 -6 8 3 13
10 12 16 -2 6 4 9 13 5 13 -5 13 -7 2 -14 -9 -6 -5 -8 12 -5 16 2 24 9 22 19
-2 12 5 15 28 12 21 -3 33 1 37 10 3 8 9 15 15 15 5 0 6 -5 2 -12 -4 -6 -3 -8
4 -4 5 3 13 0 16 -6 3 -7 4 -1 1 15 -3 15 -1 27 5 27 5 0 9 -3 9 -7 -4 -26 3
-35 11 -16 7 16 14 21 26 16 11 -4 15 -3 10 5 -3 6 -1 14 5 18 8 4 9 3 5 -4
-4 -7 -2 -12 4 -12 6 0 8 -4 5 -10 -3 -5 -1 -10 5 -10 7 0 10 7 7 15 -4 8 -2
17 3 20 6 4 10 -2 11 -12 1 -13 3 -11 9 7 4 14 8 19 9 11 1 -11 5 -10 17 5 8
10 13 14 10 7 -5 -10 1 -11 34 -3 3 0 -4 8 -15 17 -16 12 -16 14 -3 10 10 -3
20 -2 23 3 3 5 13 6 22 3 12 -5 14 -3 8 7 -6 10 -4 12 8 7 9 -3 31 0 49 9 29
12 30 14 8 12 -14 -2 -29 -7 -33 -13 -5 -6 -7 -4 -4 5 2 8 9 16 15 16 7 1 16
2 21 3 6 0 8 10 6 21 -2 11 1 23 7 26 7 4 8 2 4 -4 -4 -7 -3 -12 1 -12 12 0
33 22 33 35 0 5 -5 3 -10 -5 -7 -12 -9 -10 -7 7 0 12 5 19 9 17 4 -3 8 0 8 6
0 6 4 8 10 5 6 -3 7 1 4 9 -3 9 -11 13 -18 9 -8 -5 -8 -3 1 8 6 8 11 17 10 21
-1 3 2 10 7 15 5 4 7 3 3 -3 -3 -6 0 -11 7 -11 11 0 12 4 3 18 -6 10 -15 15
-19 13 -4 -3 -8 0 -8 5 0 6 5 11 11 11 5 0 8 4 4 9 -3 5 -1 12 4 16 6 3 8 -3
6 -15 -2 -11 0 -22 5 -25 5 -3 7 3 5 15 -2 11 0 22 5 25 11 7 1 35 -12 35 -6
0 -4 -8 3 -17 13 -16 12 -17 -4 -4 -16 13 -16 15 -2 31 9 10 13 24 9 35 -6 14
-4 16 6 10 9 -5 11 -4 6 4 -6 9 -11 9 -23 -1 -15 -12 -15 -11 -3 9 8 12 19 19
25 16 5 -3 0 4 -12 16 -25 23 -30 41 -12 41 5 0 8 -4 4 -9 -3 -5 -1 -12 4 -15
5 -4 12 -2 15 3 4 5 2 12 -3 15 -11 7 -10 79 2 87 5 3 1 9 -8 12 -9 4 -13 3
-10 -3 4 -6 -1 -7 -11 -3 -15 5 -15 7 0 15 9 5 13 14 10 20 -5 7 -1 9 9 5 9
-3 19 -3 21 2 3 4 -1 8 -9 9 -8 1 -22 3 -30 4 -20 2 -19 14 1 22 10 4 13 2 8
-7 -5 -8 -2 -7 9 2 18 15 23 26 7 16 -5 -3 -10 1 -10 10 0 9 5 13 10 10 6 -4
5 5 -2 20 -9 21 -9 28 1 34 10 6 8 10 -5 15 -16 6 -16 8 2 21 18 15 18 15 0 8
-14 -4 -17 -2 -14 8 3 8 10 13 16 12 6 -2 9 4 6 12 -4 8 -10 15 -16 15 -5 0
-6 -5 -2 -12 5 -7 3 -8 -5 -4 -9 6 -9 12 3 25 20 22 21 38 2 22 -11 -9 -16 -9
-22 0 -4 7 -3 10 2 6 5 -3 18 1 29 9 18 14 18 14 -3 14 -19 0 -21 2 -10 14 7
8 18 11 23 8 6 -3 7 -2 3 3 -4 4 -2 15 4 24 7 9 -1 5 -17 -9 l-29 -25 18 29
c10 16 13 25 7 22 -6 -4 -11 0 -11 9 0 9 5 13 10 10 6 -3 10 -1 10 4 0 6 -5
11 -12 11 -9 0 -9 3 0 12 7 7 12 17 12 23 0 5 -5 3 -11 -5 -8 -11 -9 -8 -4 13
4 19 2 26 -5 22 -5 -3 -10 -1 -10 6 0 7 9 9 23 6 19 -5 20 -5 5 7 -15 11 -15
13 0 24 15 10 15 11 -2 5 -13 -4 -17 -2 -14 8 3 8 10 13 16 12 6 -2 9 4 6 12
-4 8 -10 15 -16 15 -5 0 -6 -5 -2 -12 5 -7 3 -8 -5 -4 -9 6 -9 12 3 25 20 22
21 38 2 22 -11 -9 -16 -9 -22 0 -4 7 -3 10 2 6 5 -3 18 1 29 9 18 14 18 14 -3
14 -19 0 -21 2 -10 14 7 8 18 11 23 8 6 -3 0 5 -12 17 -25 23 -30 41 -12 41 5
0 8 -4 4 -9 -3 -5 -1 -12 4 -15 5 -4 12 -2 15 3 4 5 2 12 -3 15 -11 7 -10 79
2 87 5 3 1 9 -8 12 -9 4 -13 3 -10 -3 4 -6 -1 -7 -11 -3 -15 5 -15 7 0 15 9 5
13 14 10 20 -5 7 -1 9 9 5 9 -3 19 -3 21 2 3 4 -1 8 -9 9 -8 1 -22 3 -30 4
-20 2 -19 14 1 22 8 3 12 2 9 -4 -10 -16 1 -11 16 7 10 11 10 14 2 9 -8 -4
-13 -1 -13 9 0 9 5 13 10 10 6 -4 5 5 -2 20 -9 21 -9 28 1 34 10 6 8 10 -5 15
-16 6 -16 8 2 21 16 13 16 14 2 9 -12 -4 -18 -1 -18 10 0 9 5 16 10 16 6 0 10
5 10 11 0 6 -9 8 -22 3 -22 -6 -22 -6 2 14 21 18 23 23 10 31 -8 5 -17 8 -21
5 -4 -2 -11 1 -15 8 -4 7 -4 10 1 6 4 -4 15 -2 23 5 9 6 13 7 9 1 -3 -6 1 -11
9 -11 10 0 11 4 4 11 -13 13 -13 29 -1 21 5 -3 13 -1 16 5 4 6 3 10 -2 9 -19
-3 -31 2 -37 17 -5 14 -4 15 9 4 9 -7 18 -10 22 -6 3 3 0 6 -7 6 -7 0 -11 3
-7 6 3 4 0 13 -8 21 -18 17 -19 33 -4 33 5 0 8 -4 4 -9 -3 -5 -2 -12 3 -15 13
-8 11 28 -2 36 -7 5 -6 8 3 8 11 0 10 4 -4 13 -17 13 -17 16 -2 46 9 17 11 29
6 26 -5 -4 -9 1 -9 10 0 9 5 13 10 10 6 -3 10 -1 10 4 0 6 -5 11 -12 11 -9 0
-9 3 0 12 7 7 12 17 12 23 0 5 -5 3 -11 -5 -8 -11 -9 -8 -4 13 4 19 2 26 -5
22 -5 -3 -10 -1 -10 6 0 7 9 9 23 6 19 -5 20 -5 5 7 -15 11 -15 13 0 24 15 10
15 11 -2 5 -13 -4 -17 -2 -14 8 3 8 10 13 16 12 6 -2 9 4 6 12 -4 8 -10 15
-16 15 -5 0 -6 -5 -2 -12 5 -7 3 -8 -5 -4 -9 6 -9 12 3 25 20 22 21 38 2 22
-11 -9 -16 -9 -22 0 -4 7 -3 10 2 6 5 -3 18 1 29 9 18 14 18 14 -3 14 -19 0
-21 2 -10 14 7 8 17 11 22 8 5 -3 6 0 2 7 -6 9 -12 9 -24 -1 -11 -8 -10 -4 3
11 l20 24 -20 -7 c-15 -5 -17 -4 -8 5 6 6 9 18 6 25 -3 8 0 14 7 14 7 0 2 9
-11 21 -13 11 -19 18 -13 15 15 -7 16 56 1 67 -7 5 -2 6 13 2 19 -5 21 -4 10
4 -8 5 -11 13 -8 17 15 14 -11 42 -34 37 -16 -3 -19 -2 -10 5 11 7 10 13 -5
27 -17 17 -17 18 0 12 9 -3 17 -4 17 -1 0 2 -12 9 -26 14 -16 7 -23 14 -18 22
5 7 9 21 9 30 2 17 1 17 -15 0 -10 -9 -15 -21 -12 -27 3 -5 -1 -4 -8 2 -16 15
-23 46 -9 37 5 -3 6 -10 3 -16 -4 -7 -2 -8 4 -4 6 4 9 13 5 21 -6 16 -16 19
-27 8 -10 -11 -37 -12 -30 -2 3 5 0 9 -6 9 -6 0 -8 5 -5 10 3 6 2 10 -2 10 -5
0 -22 22 -38 50 -17 27 -33 50 -36 50 -3 0 -14 8 -25 18 -27 24 -62 40 -109
50 -22 4 -417 8 -877 7 -829 0 -837 0 -864 -21 -70 -52 -94 -157 -90 -389 2
-147 6 -179 26 -238 24 -70 64 -117 100 -117 10 0 22 -5 26 -11 4 -8 9 -7 15
2 6 11 9 10 15 -4 3 -9 10 -15 14 -12 4 2 6 -9 4 -26 -2 -18 0 -28 6 -24 6 4
9 1 8 -7 -2 -8 4 -12 17 -10 16 3 18 1 8 -9 -10 -10 -16 -10 -25 -1 -7 7 -17
12 -23 12 -5 0 1 -9 15 -20 15 -12 19 -20 11 -20 -8 0 -12 -2 -9 -5 3 -3 17
-1 32 4 14 6 25 7 25 3 -1 -4 -1 -15 0 -26 1 -16 3 -17 18 -5 11 10 14 10 9 2
-4 -8 -1 -13 9 -13 9 0 13 4 10 10 -3 6 1 7 9 4 10 -4 16 -1 16 7 0 7 3 9 6 6
4 -4 1 -13 -6 -22 -7 -9 -10 -18 -6 -22 3 -3 6 -1 6 6 0 8 6 11 16 7 12 -5 15
-2 10 11 -6 15 -5 16 11 1 10 -8 28 -14 41 -12 17 3 21 0 16 -8 -5 -9 -2 -9 9
1 14 11 17 11 17 0 0 -10 2 -11 8 -2 9 15 133 13 124 -2 -3 -5 2 -4 11 4 14
11 17 11 17 0 0 -10 3 -10 8 -3 9 15 174 16 165 1 -4 -6 -1 -7 6 -3 7 5 10 15
6 23 -4 13 -3 14 10 3 8 -7 12 -17 8 -24 -5 -8 -3 -8 8 1 13 10 64 18 82 13
20 -6 33 -5 39 5 11 16 32 12 50 -10 14 -16 19 -18 30 -7 11 11 10 12 -7 6
-18 -7 -19 -6 -6 10 11 13 16 14 22 4 5 -7 9 -221 9 -474 l0 -461 -69 -31
c-82 -37 -217 -76 -321 -93 -136 -22 -446 -13 -550 16 -8 2 -31 7 -50 10 -19
3 -66 15 -105 27 -38 12 -73 23 -77 24 -5 1 -10 3 -13 4 -3 1 -8 3 -12 5 -5 1
-26 10 -48 20 -22 10 -42 19 -45 20 -13 4 -66 30 -70 36 -3 3 -16 12 -30 19
-60 31 -109 66 -110 79 0 8 -3 12 -6 8 -8 -8 -32 15 -29 28 1 5 0 7 -2 3 -8
-14 -23 -8 -23 9 0 9 -3 14 -6 10 -11 -11 -42 26 -39 45 3 16 1 17 -10 8 -10
-8 -15 -8 -20 1 -9 13 14 31 29 22 5 -3 6 -1 2 5 -4 6 -12 9 -19 6 -18 -6 -55
28 -49 45 3 10 0 11 -9 5 -12 -6 -12 -5 -1 8 10 13 10 18 1 24 -7 4 -9 3 -6
-3 3 -5 0 -10 -8 -10 -19 0 -19 2 1 21 13 14 13 16 1 16 -9 0 -17 -6 -20 -12
-2 -7 -4 2 -5 20 0 21 3 30 10 26 7 -4 8 -2 4 4 -4 6 -13 9 -20 6 -7 -3 -18 1
-24 9 -9 11 -8 14 3 14 8 0 11 -5 8 -10 -4 -6 -1 -7 7 -2 10 6 10 10 -2 19 -8
6 -14 19 -12 28 1 10 -3 16 -9 15 -7 -1 -11 4 -10 11 2 6 -3 12 -10 12 -8 0
-19 12 -26 28 l-12 27 19 -24 c14 -18 21 -21 27 -11 5 8 4 11 -2 7 -17 -10
-25 24 -11 42 11 14 11 14 -3 3 -14 -10 -18 -10 -23 3 -3 9 -9 14 -13 12 -5
-3 -7 15 -6 39 0 24 -3 46 -7 49 -5 3 -7 -3 -5 -14 3 -14 -1 -18 -12 -14 -8 3
-10 9 -5 12 5 3 8 14 6 23 -2 15 1 16 19 7 l22 -12 -20 20 c-11 11 -24 18 -30
15 -5 -3 -3 2 4 12 13 16 13 17 -3 14 -12 -2 -20 4 -21 15 -2 9 1 15 6 11 5
-3 7 -10 4 -15 -10 -15 2 -10 16 8 10 11 10 14 2 9 -8 -4 -13 -1 -13 9 0 10
-5 13 -12 9 -6 -4 -8 -3 -4 4 3 6 2 13 -3 17 -6 3 -7 13 -4 22 5 12 3 14 -7 8
-9 -5 -11 -4 -6 4 6 9 11 9 24 -1 13 -11 14 -11 7 2 -15 24 -17 52 -3 44 7 -4
8 -3 4 5 -6 9 -11 9 -22 0 -17 -14 -19 2 -2 19 16 16 -4 16 -22 0 -8 -7 -6 -3
3 9 19 22 8 41 -15 27 -7 -4 -8 -3 -4 5 4 7 17 9 29 6 12 -4 17 -3 12 2 -6 4
-11 16 -12 26 -1 34 -3 38 -13 32 -5 -3 -10 -1 -10 4 0 6 5 11 10 11 6 0 10 8
8 18 -2 10 2 16 10 14 8 -1 11 2 7 8 -3 6 -11 8 -16 4 -13 -8 -7 29 6 38 6 5
5 8 -3 8 -8 0 -10 5 -6 13 4 7 3 9 -2 4 -5 -5 -9 -18 -9 -29 0 -12 -7 -23 -15
-25 -12 -4 -12 -3 -1 5 9 6 10 12 2 16 -11 7 4 43 23 57 4 4 3 10 -3 13 -6 4
-11 16 -11 27 0 14 4 18 13 13 8 -5 8 -2 -2 9 -9 11 -10 17 -2 17 6 0 11 4 11
8 0 5 -6 9 -14 9 -8 0 -13 -8 -11 -19 2 -10 0 -18 -4 -18 -14 0 -6 77 9 96 8
10 10 15 3 11 -8 -5 -11 1 -8 20 2 16 4 34 4 41 1 8 6 10 14 6 8 -5 8 -2 -2 9
-15 19 -26 23 -15 5 4 -7 3 -8 -4 -4 -8 5 -9 13 -3 24 4 9 7 27 6 40 -1 12 2
22 6 22 4 0 10 7 13 16 5 14 4 15 -9 4 -9 -7 -18 -10 -22 -6 -3 3 -2 6 4 6 10
0 28 54 24 73 -1 4 6 10 14 13 8 3 12 10 9 16 -3 5 -11 2 -18 -8 -11 -14 -12
-12 -11 17 0 19 4 39 7 45 8 12 6 34 -6 52 -7 11 -4 12 13 3 26 -14 29 3 4 19
-17 11 -17 11 0 6 9 -3 17 -1 17 4 0 6 -4 10 -10 10 -5 0 -10 4 -10 10 0 5 8
6 17 3 17 -7 17 -5 -1 21 -10 16 -12 25 -5 21 9 -6 11 -2 6 14 -5 19 -3 21 11
9 14 -11 13 -8 -2 17 l-19 30 23 -20 23 -20 -12 22 c-10 20 -9 22 6 16 15 -5
16 -4 7 8 -17 21 -14 51 5 44 8 -3 12 -3 8 1 -4 4 1 13 11 21 16 12 15 13 -3
6 -19 -6 -19 -6 -3 13 12 14 14 24 7 31 -7 7 -4 14 8 24 17 13 17 13 3 -6 -15
-20 -14 -20 8 -1 22 19 30 32 13 22 -5 -3 -12 1 -15 10 -3 9 -2 12 4 9 7 -4 9
3 6 19 -3 14 0 29 6 32 6 4 8 3 5 -2 -3 -6 -2 -16 2 -23 6 -9 11 -10 15 -2 4
6 3 11 -2 11 -11 0 -9 27 2 53 5 10 3 23 -3 31 -9 11 -9 16 0 22 7 4 9 3 6 -3
-4 -6 0 -17 9 -24 8 -7 14 -8 13 -3 -4 23 3 33 21 29 12 -2 18 0 15 6 -4 5
-11 7 -16 3 -8 -5 -8 18 0 55 1 2 7 -2 15 -8 12 -10 13 -8 9 8 -3 12 -10 18
-16 14 -6 -3 -7 -1 -3 5 3 6 15 9 26 7 17 -3 18 -1 10 15 -12 22 7 41 20 20 5
-8 9 -7 13 5 4 9 3 14 -1 12 -4 -3 -13 2 -21 10 -12 13 -11 14 8 8 18 -5 24
-2 28 14 3 12 10 21 15 21 5 0 7 4 3 9 -3 5 -1 12 5 16 6 4 8 10 5 14 -2 5 7
7 20 6 14 -2 23 2 22 8 -1 7 4 11 11 9 8 -1 11 2 7 8 -5 8 -13 6 -25 -5 -14
-12 -20 -13 -26 -4 -4 7 -3 10 3 6 6 -4 16 -1 22 7 9 11 9 15 -1 20 -7 3 -3 3
10 0 16 -4 22 -1 22 11 0 10 -5 13 -12 9 -6 -4 -8 -3 -5 4 4 5 18 9 32 7 29
-3 29 -1 14 28 -12 21 -12 21 16 3 15 -10 24 -13 21 -7 -12 19 4 33 22 19 15
-11 15 -11 5 3 -7 9 -9 20 -5 25 4 5 -2 1 -14 -9 -11 -9 -25 -17 -30 -17 -4 0
2 7 14 16 13 9 19 20 15 27 -5 9 -3 9 8 0 18 -15 45 -1 34 18 -6 9 -3 11 9 6
11 -4 16 -2 14 6 -3 15 63 77 81 77 7 0 10 -4 7 -8 -3 -5 1 -9 9 -9 8 0 11 5
7 11 -11 18 -11 36 0 43 7 3 8 1 4 -5 -4 -7 -2 -12 4 -12 6 0 8 -6 4 -12 -4
-7 2 -5 13 5 11 9 23 14 28 10 4 -5 5 -2 1 5 -4 6 -2 13 3 13 6 1 15 2 20 3 5
0 18 12 30 26 18 21 20 22 15 5 -5 -16 -4 -17 5 -5 8 11 6 18 -7 29 -16 12
-15 13 5 7 12 -4 24 -2 28 4 3 6 12 7 18 3 21 -13 36 -11 30 4 -5 12 -7 12
-15 1 -8 -10 -9 -10 -5 2 2 8 10 15 18 15 8 1 13 7 11 14 -1 7 2 10 8 6 8 -5
7 -12 -2 -23 -11 -15 -11 -15 3 -5 12 10 18 10 29 0 7 -6 4 1 -6 18 -12 19
-14 26 -5 21 9 -6 19 -3 29 10 10 13 13 14 9 3 -3 -9 4 -21 16 -29 21 -12 21
-12 7 5 -14 17 -13 18 6 13 17 -4 21 -1 18 19 -2 20 0 22 12 12 17 -14 18 -23
2 -13 -7 4 -9 3 -5 -1 4 -5 14 -10 22 -11 11 -2 12 2 5 15 -8 15 -5 17 15 13
14 -2 25 -9 25 -16 0 -6 5 -4 10 4 5 8 15 15 22 15 7 0 15 11 19 25 7 24 13
10 9 -20 -1 -10 7 -6 22 10 13 14 23 27 22 30 -1 3 6 7 17 7 10 1 19 -3 19 -8
0 -6 -4 -8 -9 -5 -11 7 -36 -22 -27 -31 3 -3 6 -1 6 5 0 6 9 9 20 7 11 -2 19
-1 17 3 -1 4 3 7 8 7 6 0 9 -4 7 -8 -1 -5 2 -6 8 -2 6 3 7 11 4 17 -5 7 -1 9
9 5 9 -3 19 -1 23 5 4 6 3 8 -4 4 -6 -3 -14 -1 -18 6 -4 7 -4 10 1 6 4 -4 15
-2 23 5 13 9 14 9 8 0 -4 -8 -2 -13 6 -14 7 0 21 -2 30 -4 10 -2 20 1 23 5 3
5 -3 7 -15 5 -11 -2 -22 -1 -24 3 -3 4 11 8 29 8 18 0 32 -3 30 -6 -2 -3 8
-11 22 -17 25 -12 25 -12 7 8 -17 19 -17 20 1 13 14 -6 16 -4 10 6 -5 9 -4 11
4 6 6 -4 9 -11 6 -16 -3 -5 0 -12 6 -16 8 -4 9 -3 5 4 -4 7 -1 12 8 12 8 0 17
-6 19 -12 4 -10 6 -10 6 0 1 7 -6 15 -14 18 -8 4 -15 10 -15 16 0 5 10 2 22
-6 14 -10 27 -12 38 -6 10 5 20 6 24 3 3 -3 6 0 6 7 0 9 5 7 16 -6 8 -10 12
-13 8 -5 -4 9 -3 12 4 7 5 -3 13 0 16 6 3 7 4 4 1 -7 -4 -17 1 -20 30 -21 19
-1 35 2 35 6 0 5 -8 7 -17 5 -23 -3 -35 4 -27 16 3 5 11 6 17 2 12 -8 33 -13
55 -15 6 -1 12 -4 12 -7 0 -10 48 -12 55 -2 3 5 -3 7 -14 4 -10 -3 -21 -1 -24
4 -4 7 17 9 54 4 4 -1 9 -10 12 -22 4 -16 9 -19 24 -11 20 10 59 10 69 -1 11
-10 24 -8 24 3 0 5 -5 9 -11 7 -6 -1 -14 5 -16 13 -3 9 -1 11 4 5 12 -15 33
-17 47 -6 9 8 13 6 14 -4 1 -8 3 -22 4 -30 1 -11 5 -12 15 -4 14 13 18 23 5
15 -5 -3 -9 1 -9 8 0 7 6 13 13 13 7 0 12 -5 11 -10 -1 -5 4 -12 12 -15 8 -2
11 0 8 5 -7 11 22 11 41 -1 6 -4 12 -5 12 -1 0 3 9 1 19 -5 14 -7 21 -6 24 3
4 9 6 9 6 -1 1 -7 5 -11 10 -7 6 3 8 -3 6 -13 -3 -19 18 -23 43 -8 7 4 16 5
20 1 4 -4 1 -10 -5 -12 -18 -6 -16 -20 2 -20 8 0 12 4 9 9 -3 4 4 8 15 8 12 0
21 -3 21 -8 0 -4 9 -13 19 -19 15 -10 20 -9 25 2 3 9 0 12 -8 9 -8 -3 -16 -1
-20 4 -3 5 5 8 17 7 12 -1 23 -9 25 -18 2 -9 8 -17 13 -17 6 0 8 4 5 8 -3 5 1
9 10 9 9 0 13 -7 9 -21 -3 -12 -2 -15 1 -8 3 6 12 12 20 12 9 0 12 -5 8 -12
-4 -7 3 -4 16 7 l23 20 -11 -22 c-10 -18 -9 -20 8 -16 11 3 17 10 13 16 -3 6
-1 7 5 3 6 -4 8 -14 5 -23 -5 -12 -3 -14 8 -7 20 12 38 14 45 3 3 -5 10 -6 16
-3 7 4 8 2 4 -5 -4 -6 -12 -8 -18 -5 -7 4 -8 2 -4 -5 4 -6 12 -8 18 -5 8 5 9
1 4 -11 -5 -15 -4 -16 9 -5 8 7 13 16 10 19 -2 4 2 8 10 8 8 0 12 -4 9 -9 -3
-4 0 -9 5 -9 20 -3 26 -5 47 -17 12 -6 23 -10 25 -9 3 1 1 -2 -3 -7 -11 -14
-10 -26 3 -26 5 0 7 5 4 10 -3 6 1 10 10 10 10 0 13 -5 9 -12 -5 -8 0 -7 11 2
17 14 18 13 12 -2 -3 -10 -1 -20 5 -24 6 -4 8 -3 5 3 -4 6 0 16 8 23 13 11 14
10 9 -5 -6 -14 -4 -16 7 -10 11 7 11 5 -1 -10 -14 -17 -14 -18 10 -5 23 12 24
12 11 -3 -8 -10 -9 -17 -3 -17 6 0 14 5 17 10 5 8 11 7 21 -1 8 -6 14 -8 14
-4 0 4 6 2 14 -5 8 -6 12 -19 9 -28 -5 -14 -3 -15 8 -4 7 6 18 12 24 12 5 0 3
-5 -5 -11 -12 -9 -11 -10 7 -6 13 3 26 0 30 -5 3 -6 1 -8 -5 -4 -6 3 -14 2
-17 -4 -4 -6 -3 -10 2 -9 24 4 53 -2 53 -12 0 -5 -5 -7 -12 -3 -7 4 -8 3 -4
-4 8 -13 36 -5 36 11 0 6 3 7 7 4 3 -4 -2 -17 -13 -28 -19 -22 -19 -22 3 -11
12 7 23 17 26 24 2 7 8 1 12 -14 6 -23 11 -26 44 -24 34 2 38 0 35 -20 -1 -16
2 -21 12 -17 8 3 11 10 7 16 -3 5 -1 7 5 3 5 -3 12 -1 14 6 3 7 7 5 11 -6 4
-10 3 -15 -3 -11 -6 3 -10 2 -10 -4 0 -17 43 -7 48 11 2 10 8 15 13 12 5 -3 9
0 9 6 0 6 5 8 11 5 6 -4 10 -1 8 6 -3 28 1 39 18 39 13 0 14 3 6 11 -13 13 -6
39 9 39 6 0 4 -8 -3 -17 -13 -16 -12 -17 3 -5 10 8 15 22 12 37 -3 20 -1 23
13 19 15 -5 15 -4 3 4 -10 8 -18 8 -27 0 -10 -8 -12 -7 -7 6 6 15 18 20 37 17
5 -1 6 3 2 9 -3 6 -10 8 -14 6 -4 -3 -8 1 -8 9 0 8 4 12 8 9 4 -2 7 5 6 15 -1
19 -2 19 -21 3 -16 -13 -18 -14 -8 -1 6 9 8 20 4 24 -4 5 -2 5 4 2 6 -4 20 1
30 9 15 13 16 15 2 10 -9 -2 -19 1 -22 9 -3 10 0 12 11 8 10 -4 14 -2 10 4 -4
6 -1 14 5 16 10 4 9 6 -1 6 -11 1 -11 4 0 18 8 9 9 14 3 10 -7 -4 -15 0 -18 9
-3 8 -2 12 4 9 6 -3 10 -2 10 3 0 6 -7 13 -15 16 -12 4 -13 10 -6 25 6 11 8
21 3 24 -4 2 -2 2 5 1 7 -2 15 2 19 8 4 7 3 8 -4 4 -7 -4 -12 -2 -12 4 0 6 -5
8 -12 4 -7 -4 -8 -3 -4 5 4 6 11 9 16 6 5 -3 12 0 16 6 4 8 3 9 -4 5 -16 -10
-15 7 1 23 10 11 10 13 0 7 -9 -5 -13 2 -13 24 0 17 -4 29 -9 26 -5 -4 -8 2
-6 11 2 10 4 26 4 36 1 11 6 15 13 11 7 -4 8 -3 4 5 -4 6 -11 9 -15 7 -4 -3
-13 4 -20 16 -7 11 -8 17 -2 13 6 -3 11 1 11 10 0 10 5 13 13 9 7 -4 8 -3 4 2
-5 5 -14 9 -20 9 -7 0 -12 5 -13 10 0 6 9 9 20 7 15 -2 11 4 -14 18 -19 12
-26 19 -15 16 18 -5 18 -4 -2 10 -21 15 -22 51 -1 38 6 -4 3 5 -7 19 -11 17
-22 24 -32 20 -11 -4 -14 -2 -9 5 4 7 2 12 -3 12 -6 0 -11 -5 -11 -12 0 -6 -3
-9 -6 -6 -3 4 0 17 7 30 11 21 11 22 -5 9 -14 -12 -16 -12 -10 3 4 11 1 16
-11 16 -9 0 -14 -4 -10 -9 3 -5 1 -12 -4 -15 -10 -7 -9 13 2 31 5 7 1 9 -13 6
-12 -3 -22 1 -26 11 -3 9 -11 13 -18 9 -6 -4 -5 1 3 10 12 15 12 17 -3 11 -11
-4 -16 -1 -16 10 0 19 -107 126 -127 126 -7 0 -13 4 -13 9 0 5 -10 13 -22 17
-13 4 -25 10 -28 14 -7 10 -192 98 -220 104 -3 1 -15 7 -27 14 -13 7 -23 10
-23 7 0 -3 -13 1 -30 10 -16 8 -32 15 -35 15 -3 0 -6 0 -7 1 -2 0 -10 2 -18 4
-8 2 -49 14 -90 25 -41 12 -84 23 -95 26 -19 4 -34 7 -87 19 -13 3 -36 8 -53
10 -16 3 -37 8 -45 10 -8 2 -37 7 -65 11 -27 3 -59 8 -70 10 -11 2 -42 7 -70
10 -27 3 -66 8 -85 10 -45 6 -545 16 -551 10z m1915 -618 c-3 -4 -11 -5 -19
-2 -11 5 -12 9 -2 19 12 13 31 -1 21 -17z m61 -287 c3 -5 2 -12 -3 -15 -5 -3
-9 1 -9 9 0 17 3 19 12 6z m-1355 -92 c0 -4 -7 -9 -15 -13 -9 -3 -15 0 -15 8
0 7 7 13 15 13 8 0 15 -4 15 -8z m40 1 c0 -5 -5 -10 -11 -10 -5 0 -7 5 -4 10
3 6 8 10 11 10 2 0 4 -4 4 -10z m-726 -47 c4 -10 4 -14 0 -10 -4 4 -13 2 -21
-4 -16 -14 -17 -3 0 16 15 18 14 18 21 -2z m1013 2 c0 -8 -4 -12 -9 -9 -5 3
-6 10 -3 15 9 13 12 11 12 -6z m-1360 -161 c2 -6 -3 -11 -10 -11 -8 0 -14 6
-14 14 0 15 19 12 24 -3z m-51 -32 c-17 -16 -18 -16 -5 5 7 12 15 20 18 17 3
-2 -3 -12 -13 -22z m-561 -754 c5 4 5 1 1 -5 -11 -20 -23 -15 -29 10 -5 20 -5
20 7 5 7 -10 17 -14 21 -10z m-97 -438 c-7 -10 -14 -18 -15 -16 -6 6 9 36 18
36 5 0 4 -9 -3 -20z m3072 -94 c-7 -7 -15 -5 -22 3 -11 10 -10 11 5 5 14 -5
16 -2 11 12 -5 16 -4 16 5 4 6 -9 7 -18 1 -24z m-3070 -298 c0 -19 -16 -5 -17
14 -2 18 0 20 7 8 5 -8 10 -18 10 -22z m7 -112 c0 -8 -6 -12 -15 -9 -11 5 -11
7 0 14 7 5 13 9 14 9 0 0 1 -6 1 -14z m1330 -140 c0 -15 -21 -16 -34 -1 -4 4
-3 5 4 1 6 -3 14 -2 18 4 8 14 12 13 12 -4z m160 0 c0 -15 -21 -16 -34 -1 -4
4 -3 5 4 1 6 -3 14 -2 18 4 8 14 12 13 12 -4z m118 5 c3 -5 2 -12 -3 -15 -5
-3 -9 1 -9 9 0 17 3 19 12 6z m100 0 c3 -5 2 -12 -3 -15 -5 -3 -9 1 -9 9 0 17
3 19 12 6z m1366 -315 c-8 -10 -9 -16 -1 -21 5 -3 10 -11 10 -18 0 -6 -6 -2
-14 8 -14 20 -11 45 6 45 6 0 6 -6 -1 -14z m-2916 -156 c-3 -5 -11 -10 -16
-10 -6 0 -7 5 -4 10 3 6 11 10 16 10 6 0 7 -4 4 -10z m2918 -35 c-3 -9 -8 -14
-10 -11 -3 3 -2 9 2 15 9 16 15 13 8 -4z m-2 -609 c-8 -10 -9 -16 -1 -21 5 -3
10 -11 10 -18 0 -6 -6 -2 -14 8 -14 20 -11 45 6 45 6 0 6 -6 -1 -14z m3 -191
c-4 -8 -11 -12 -16 -9 -6 4 -5 10 3 15 19 12 19 11 13 -6z m-2904 -525 c0 -5
-4 -10 -10 -10 -5 0 -10 5 -10 10 0 6 5 10 10 10 6 0 10 -4 10 -10z m161 -73
c-10 -9 -11 -8 -5 6 3 10 9 15 12 12 3 -3 0 -11 -7 -18z m2062 -70 c3 -8 -1
-14 -9 -14 -15 0 -18 9 -7 20 9 9 10 9 16 -6z m-1669 -45 c3 -5 -1 -9 -9 -9
-8 0 -12 4 -9 9 3 4 7 8 9 8 2 0 6 -4 9 -8z m66 -22 c0 -5 -2 -10 -4 -10 -3 0
-8 5 -11 10 -3 6 -1 10 4 10 6 0 11 -4 11 -10z m95 0 c3 -6 -1 -7 -9 -4 -18 7
-21 14 -7 14 6 0 13 -4 16 -10z m1040 -29 c-6 -5 -25 10 -25 20 0 5 6 4 14 -3
8 -7 12 -15 11 -17z m-562 -21 c4 0 5 5 1 12 -5 7 -3 8 5 3 9 -5 10 -10 2 -18
-8 -8 -15 -6 -26 6 -8 9 -10 12 -3 7 7 -6 16 -10 21 -10z m44 5 c0 -8 -4 -15
-9 -15 -10 0 -11 14 -1 23 9 10 10 9 10 -8z"/>
<path d="M6878 6523 c7 -3 16 -2 19 1 4 3 -2 6 -13 5 -11 0 -14 -3 -6 -6z"/>
<path d="M6915 6410 c-3 -5 -1 -10 4 -10 6 0 11 5 11 10 0 6 -2 10 -4 10 -3 0
-8 -4 -11 -10z"/>
<path d="M6926 6343 c-6 -14 -5 -15 5 -6 7 7 10 15 7 18 -3 3 -9 -2 -12 -12z"/>
<path d="M5274 6168 c-4 -5 -3 -12 0 -15 3 -4 6 -1 6 7 0 9 3 10 13 1 10 -8
14 -7 14 2 0 15 -25 18 -33 5z"/>
<path d="M6934 6171 c4 -5 1 -12 -4 -14 -6 -3 -5 -4 2 -3 15 3 23 26 8 26 -6
0 -9 -4 -6 -9z"/>
<path d="M5755 6136 c-15 -11 -16 -13 -1 -13 9 0 16 5 16 11 0 6 5 4 10 -4 6
-9 10 -10 10 -3 0 19 -16 23 -35 9z"/>
<path d="M5814 6126 c24 -19 36 -20 36 -4 0 6 -3 8 -6 5 -4 -3 -16 -2 -28 4
-20 10 -20 10 -2 -5z"/>
<path d="M4710 6050 c0 -5 5 -10 11 -10 5 0 7 5 4 10 -3 6 -8 10 -11 10 -2 0
-4 -4 -4 -10z"/>
<path d="M6177 6013 c3 -7 6 -13 8 -13 2 0 5 6 8 13 3 8 -1 14 -8 14 -7 0 -11
-6 -8 -14z"/>
<path d="M4605 6001 c-3 -5 -2 -12 3 -15 5 -3 9 1 9 9 0 17 -3 19 -12 6z"/>
<path d="M6251 5993 c-1 -17 16 -25 25 -12 4 7 3 9 -4 5 -5 -3 -13 0 -15 6 -4
9 -6 10 -6 1z"/>
<path d="M6294 5971 c0 -11 5 -17 13 -14 10 4 11 9 2 19 -15 18 -15 18 -15 -5z"/>
<path d="M6463 5897 c0 -7 11 -13 23 -13 20 0 25 11 6 11 -4 0 -12 3 -18 7 -6
4 -11 1 -11 -5z"/>
<path d="M4383 5860 c-18 -16 -29 -32 -24 -35 5 -2 12 2 15 10 3 8 11 14 18
13 7 -2 12 3 10 11 -2 8 3 11 12 8 10 -4 13 -1 9 9 -6 17 -2 19 -40 -16z"/>
<path d="M6876 5812 c-3 -5 1 -9 9 -9 8 0 12 4 9 9 -3 4 -7 8 -9 8 -2 0 -6 -4
-9 -8z"/>
<path d="M6651 5794 c0 -11 3 -14 6 -6 3 7 2 16 -1 19 -3 4 -6 -2 -5 -13z"/>
<path d="M6710 5766 c0 -9 5 -16 10 -16 6 0 10 4 10 9 0 6 -4 13 -10 16 -5 3
-10 -1 -10 -9z"/>
<path d="M3875 4990 c-3 -5 -1 -10 4 -10 6 0 11 5 11 10 0 6 -2 10 -4 10 -3 0
-8 -4 -11 -10z"/>
<path d="M3854 4848 c-14 -21 -13 -35 2 -35 10 0 11 4 3 13 -7 8 -6 13 3 17 7
2 10 7 7 11 -4 4 -11 1 -15 -6z"/>
<path d="M6760 4831 c0 -6 4 -13 10 -16 6 -3 7 1 4 9 -7 18 -14 21 -14 7z"/>
<path d="M6848 4753 c7 -3 16 -2 19 1 4 3 -2 6 -13 5 -11 0 -14 -3 -6 -6z"/>
<path d="M6885 4710 c-3 -5 -1 -10 4 -10 6 0 11 5 11 10 0 6 -2 10 -4 10 -3 0
-8 -4 -11 -10z"/>
<path d="M3834 4626 c1 -8 5 -18 8 -22 4 -3 5 1 4 10 -1 8 -5 18 -8 22 -4 3
-5 -1 -4 -10z"/>
<path d="M6916 4581 c-4 -5 -2 -12 3 -15 5 -4 12 -2 15 3 4 5 2 12 -3 15 -5 4
-12 2 -15 -3z"/>
<path d="M3831 4472 c-7 -13 -6 -19 2 -19 7 0 13 9 13 19 0 10 -1 18 -3 18 -1
0 -7 -8 -12 -18z"/>
<path d="M4865 4210 c-4 -6 -1 -9 7 -8 7 2 12 -3 10 -10 -1 -8 2 -11 7 -7 11
6 3 35 -9 35 -5 0 -12 -5 -15 -10z"/>
<path d="M6926 4138 c-20 -28 -20 -35 -2 -35 8 0 12 6 9 14 -3 7 0 20 7 28 7
8 10 15 7 15 -3 0 -13 -10 -21 -22z"/>
<path d="M4946 4093 c-6 -14 -5 -15 5 -6 7 7 10 15 7 18 -3 3 -9 -2 -12 -12z"/>
<path d="M5663 4077 c0 -8 6 -14 14 -14 9 0 10 4 2 14 -6 7 -12 13 -14 13 -1
0 -2 -6 -2 -13z"/>
<path d="M3875 3990 c3 -5 8 -10 11 -10 2 0 4 5 4 10 0 6 -5 10 -11 10 -5 0
-7 -4 -4 -10z"/>
<path d="M3943 3785 c0 -8 4 -12 9 -9 5 3 6 10 3 15 -9 13 -12 11 -12 -6z"/>
<path d="M4090 3471 c0 -5 5 -13 10 -16 6 -3 10 -2 10 4 0 5 -4 13 -10 16 -5
3 -10 2 -10 -4z"/>
<path d="M3480 2595 c-7 -9 -8 -15 -2 -15 5 0 12 7 16 15 3 8 4 15 2 15 -2 0
-9 -7 -16 -15z"/>
<path d="M3542 2546 c10 -7 15 -16 11 -19 -3 -4 -1 -7 5 -7 7 0 12 4 12 8 0
12 -22 32 -34 32 -6 0 -3 -7 6 -14z"/>
<path d="M3602 2496 c7 -8 15 -12 17 -11 5 6 -10 25 -20 25 -5 0 -4 -6 3 -14z"/>
<path d="M3690 2409 c0 -5 5 -7 10 -4 6 3 10 8 10 11 0 2 -4 4 -10 4 -5 0 -10
-5 -10 -11z"/>
<path d="M6750 2290 c0 -5 5 -10 11 -10 5 0 7 5 4 10 -3 6 -8 10 -11 10 -2 0
-4 -4 -4 -10z"/>
<path d="M3935 2280 c-3 -5 -1 -10 4 -10 6 0 11 5 11 10 0 6 -2 10 -4 10 -3 0
-8 -4 -11 -10z"/>
<path d="M6590 2226 c0 -2 8 -10 18 -17 15 -13 16 -12 3 4 -13 16 -21 21 -21
13z"/>
<path d="M6470 2186 c0 -2 7 -7 16 -10 8 -3 12 -2 9 4 -6 10 -25 14 -25 6z"/>
<path d="M4490 2079 c0 -15 18 -19 23 -6 3 8 -1 14 -9 14 -8 0 -14 -4 -14 -8z"/>
<path d="M4580 2061 c0 -6 4 -13 10 -16 6 -3 7 1 4 9 -7 18 -14 21 -14 7z"/>
<path d="M5960 2060 c-9 -6 -10 -10 -3 -10 6 0 15 5 18 10 8 12 4 12 -15 0z"/>
<path d="M5844 2029 c-19 -22 -19 -22 4 -8 12 8 22 17 22 21 0 12 -6 9 -26
-13z"/>
<path d="M4776 2018 c3 -4 11 -5 19 -1 21 7 19 12 -4 10 -11 0 -18 -5 -15 -9z"/>
<path d="M4956 2003 c-6 -14 -5 -15 5 -6 7 7 10 15 7 18 -3 3 -9 -2 -12 -12z"/>
<path d="M5030 2010 c0 -5 5 -10 11 -10 5 0 7 5 4 10 -3 6 -8 10 -11 10 -2 0
-4 -4 -4 -10z"/>
<path d="M5485 2011 c-6 -11 13 -26 22 -17 4 3 1 6 -6 6 -7 0 -9 5 -6 10 3 6
4 10 1 10 -3 0 -7 -4 -11 -9z"/>
<path d="M5610 2011 c0 -6 4 -13 10 -16 6 -3 7 1 4 9 -7 18 -14 21 -14 7z"/>
<path d="M5386 1993 c-6 -14 -5 -15 5 -6 7 7 10 15 7 18 -3 3 -9 -2 -12 -12z"/>
<path d="M4990 1996 c0 -2 9 -6 20 -9 11 -3 18 -1 14 4 -5 9 -34 13 -34 5z"/>
<path d="M5270 1976 c0 -2 7 -7 16 -10 8 -3 12 -2 9 4 -6 10 -25 14 -25 6z"/>
</g>
</svg>
